<svg version="1" xmlns="http://www.w3.org/2000/svg" width="666.667" height="666.667" viewBox="0 0 500.000000 500.000000"><path d="M383.2 180.1c-15.4 2-27.6 8.2-39.2 19.9-9.9 9.9-14.8 18.4-18.1 32-2.9 11.3-2.3 25.1 1.4 36 2.4 7 2.5 7.6.9 9.1-.9.9-58.8 42-128.7 91.4-69.8 49.3-127.4 90.1-127.9 90.6-.6.5 6.8.9 18.5.9h19.5l116.7-82.5L343 295l5.9 4.8c38.7 31.1 95.9 12.3 108.8-35.8 2.7-10.2 2.2-26.4-1-36.5-7.3-22.6-24.8-39.6-46.7-45.4-9.3-2.4-18.6-3.2-26.8-2zm23.6 25.1c23.2 7.4 35.7 34.1 27 57.6-7 19-24 30-44.7 29-6.6-.3-10-1-14.4-3.1-7.1-3.2-11.9-6.6-11.2-7.7.3-.5 9.5-7.2 20.5-15s20-14.5 20-14.9c0-.7-10.1-15.4-12-17.4-.4-.5-10 5.7-21.3 13.7-11.3 8-20.8 14.6-21 14.6-1.4 0-2.9-11.2-2.4-18.2 1.6-24.4 23.9-43.3 48.2-41.1 2.8.3 7.8 1.4 11.3 2.5z"/><path d="M161.5 229.6c-15.6 2.5-28 8.9-39.1 19.9-6.8 6.8-8.9 9.7-12.7 17.6-5.8 12.1-7.1 18-7.1 30.9.1 8.8.6 11.9 3 19.2l3 8.6L74.3 350 40 374.3v13.9c0 9.9.3 13.7 1.1 13.2.6-.3 18.8-13.2 40.5-28.5 21.7-15.4 39.8-27.9 40.3-27.9.4 0 1.6 1 2.7 2.2 3.9 4.3 16.8 11.8 24.8 14.4 21.5 6.8 43.6 3 62.3-10.9 25-18.6 33.4-54.9 19.4-83.2-11.5-23.1-32.4-36.7-58.1-37.9-4.7-.3-9.8-.2-11.5 0zm18.8 23.9c8.4 2.2 14.3 5.3 20 10.5 15.7 14.5 19.2 37.8 8.4 56.2-3.2 5.5-12.1 13.9-17.5 16.7-10.6 5.4-26.1 6.5-36.2 2.5-5.6-2.2-14-7.5-13.4-8.5.2-.4 9.5-7.1 20.7-15 11.1-7.8 20.4-14.4 20.5-14.5.6-.4-12.2-18.3-13-18.4-.4 0-9.9 6.5-21 14.4-11.2 7.9-20.6 14.2-21 14-.3-.2-1.2-3.6-1.9-7.4-3.9-22.1 10.7-44.3 33.1-50.2 8.2-2.1 14-2.2 21.3-.3zM327.5 315.6c-3.3.8-9.8 3.3-14.5 5.6-12 5.8-24 17.8-29.8 29.8-5.8 12-7.5 20.1-6.9 33 .3 7.9 1.1 12.5 3.1 18.4 1.5 4.3 2.5 7.9 2.4 8.1-1.1.7-69.4 48.9-69.7 49.2-.2.1 8.3.3 19 .3h19.4l21.9-15.5c12.1-8.5 22.1-15.5 22.3-15.5.3 0 2.5 1.8 5.1 3.9 6.6 5.5 14.3 9.8 23.1 12.9 6.7 2.3 9.1 2.6 20.6 2.6 12 0 13.7-.2 21.6-3 26.9-9.5 44.3-32.8 45.7-60.9.9-19.8-5.5-36.2-19.8-50.6-7-7-10.2-9.4-17-12.7-4.7-2.3-11.4-4.8-15-5.6-8.1-1.9-23.5-1.9-31.5 0zm24.1 21.5c23.3 4.2 40 27.5 36.4 50.6-4.8 30.1-36.3 47.2-63.5 34.4-3.3-1.5-7.1-3.7-8.4-4.8l-2.4-1.9 18.9-13.4c10.4-7.3 19.9-14.1 21.1-15l2.2-1.7-6.2-8.8c-3.4-4.9-6.4-8.9-6.8-8.9-.3-.1-9.6 6.4-20.8 14.3-12.4 8.7-20.7 13.9-21.2 13.4s-1.4-3.8-2-7.2c-3.9-22.1 11.8-45.2 34.4-50.7 6.7-1.6 10.9-1.7 18.3-.3z"/></svg>